<svg xmlns="http://www.w3.org/2000/svg" viewBox="0 0 950 900" role="img" aria-label="Biologik Logo">
  <path d="M 0 408 C 82 209, 243 68, 468 15 C 550 0, 612 3, 681 18 L 676 42 C 612 32, 553 34, 481 49 C 265 94, 118 230, 39 408 Z" fill="#9fa46b"/>
  <path d="M 822 14 C 896 86, 949 243, 949 418 C 948 592, 914 743, 857 794 L 834 774 C 885 723, 920 588, 921 418 C 921 256, 890 122, 811 44 Z" fill="#b86457"/>
  <path d="M 24 498 C 188 724, 442 849, 760 838 L 783 889 C 441 903, 165 777, 10 520 Z" fill="#e1b64a"/>
</svg>
